<?xml version="1.0" encoding="utf-8"?>
<!-- Generator: Adobe Illustrator 27.4.0, SVG Export Plug-In . SVG Version: 6.00 Build 0)  -->
<svg version="1.1" id="logo" xmlns="http://www.w3.org/2000/svg" xmlns:xlink="http://www.w3.org/1999/xlink" x="0px" y="0px"
	 viewBox="0 0 155.75 124.55" style="enable-background:new 0 0 155.75 124.55;" xml:space="preserve">
<style type="text/css">
	.st0{fill:url(#SVGID_1_);}
	.st1{fill:#404041;}
	.st2{fill:url(#SVGID_00000008851799546364749530000009223504227073385901_);}
</style>
<g>
	<linearGradient id="SVGID_1_" gradientUnits="userSpaceOnUse" x1="8.1925" y1="61.5314" x2="146.3512" y2="61.5314">
		<stop  offset="2.237672e-07" style="stop-color:#6D80BE"/>
		<stop  offset="1" style="stop-color:#8552A0"/>
	</linearGradient>
	<path class="st0" d="M126.95,46.65c0.21-1.34,0.31-2.7,0.31-4.07c0-14.51-11.81-26.32-26.32-26.32c-12.5,0-22.99,8.76-25.66,20.45
		c-2.96-0.61-5.98-0.92-9.04-0.92c-14.59,0-28.02,6.98-36.41,18.79C17.49,56.8,8.19,67.66,8.19,80.48
		c0,14.51,11.81,26.32,26.32,26.32h3.69c3.02,0,5.46-2.45,5.46-5.46s-2.45-5.46-5.46-5.46h-3.69c-8.49,0-15.39-6.9-15.39-15.39
		c0-8.08,6.31-14.83,14.37-15.35c2.14-0.14,3.96-1.51,4.73-3.44c6.3-9.39,16.7-14.96,28.03-14.96c4.1,0,8.12,0.73,11.95,2.18
		c1.73,0.66,3.67,0.39,5.17-0.71c1.49-1.09,2.33-2.87,2.22-4.72c-0.02-0.3-0.03-0.6-0.03-0.9c0-8.49,6.9-15.39,15.39-15.39
		c8.49,0,15.39,6.9,15.39,15.39c0,1.97-0.37,3.89-1.1,5.71c-0.6,1.5-0.5,3.19,0.26,4.62c0.77,1.42,2.13,2.44,3.71,2.76
		c9.39,1.92,16.21,10.29,16.21,19.9c0,11.2-9.11,20.31-20.31,20.31c-3.02,0-5.46,2.45-5.46,5.46s2.45,5.46,5.46,5.46
		c17.22,0,31.24-14.01,31.24-31.24C146.35,62.76,138.47,51.38,126.95,46.65z"/>
</g>
<g>
	<g>
		<path class="st1" d="M66.25,54.16c-14.51,0-26.32,11.81-26.32,26.32s11.81,26.32,26.32,26.32c5.75,0,11.08-1.86,15.41-5.01
			c0.23,2.8,2.58,5.01,5.44,5.01c3.02,0,5.46-2.45,5.46-5.46V80.48C92.57,65.97,80.76,54.16,66.25,54.16z M66.25,95.87
			c-8.49,0-15.39-6.9-15.39-15.39s6.9-15.39,15.39-15.39c8.49,0,15.39,6.9,15.39,15.39S74.74,95.87,66.25,95.87z"/>
	</g>
</g>
<path class="st1" d="M100.95,54.16c-3.02,0-5.46,2.45-5.46,5.46v41.71c0,3.02,2.45,5.46,5.46,5.46c3.02,0,5.46-2.45,5.46-5.46V59.63
	C106.41,56.61,103.96,54.16,100.95,54.16z"/>
<linearGradient id="SVGID_00000087401255657893392110000007983145862296674231_" gradientUnits="userSpaceOnUse" x1="94.0701" y1="42.6258" x2="107.8221" y2="42.6258">
	<stop  offset="0" style="stop-color:#7F65AB"/>
	<stop  offset="1" style="stop-color:#8061A8"/>
</linearGradient>
<path style="fill:url(#SVGID_00000087401255657893392110000007983145862296674231_);" d="M102.11,35.85
	c-4.71-0.77-8.72,3.24-7.95,7.94c0.47,2.85,2.77,5.15,5.62,5.62c4.71,0.77,8.72-3.24,7.94-7.94
	C107.26,38.61,104.96,36.31,102.11,35.85z"/>
</svg>
